<svg width="500" height="500" viewBox="0 0 500 500" fill="none" xmlns="http://www.w3.org/2000/svg">
<rect width="500" height="500" fill="white"/>
<path d="M378.807 325L248.904 400L119 325V175L248.904 100L378.807 175V325Z" fill="#006699"/>
<path d="M310.543 238.757V285.688L269.142 309.59L351.502 357.24L392.588 333.056V286.225L310.543 238.757Z" fill="#006699"/>
<path d="M351.459 309.211L248.904 368.421L146.348 309.211V190.789L248.904 131.579L351.459 190.789V309.211Z" fill="white"/>
<path d="M324.111 293.421L248.904 336.842L173.696 293.421V206.579L248.904 163.158L324.111 206.579V293.421Z" fill="#006699"/>
<path d="M337.88 285.672V301.316L324.08 309.283L351.533 325.166L365.228 317.105V301.495L337.88 285.672Z" fill="white"/>
<path opacity="0.05" d="M248.904 250V400L119 325V175L248.904 250Z" fill="#F6F6F6"/>
<path opacity="0.2" d="M248.904 100L378.807 175L248.904 250L119 175L248.904 100Z" fill="#F6F6F6"/>
<path opacity="0.1" d="M378.807 278.252L351.459 293.528L365.228 301.495L392.588 286.225L378.807 278.252Z" fill="white"/>
<path opacity="0.05" d="M337.692 317.159L351.533 325.166L351.502 357.24L337.249 348.994L337.692 317.159Z" fill="white"/>
</svg>
