<svg width="500" height="500" viewBox="0 0 500 500" fill="none" xmlns="http://www.w3.org/2000/svg">
<rect width="500" height="500" fill="white"/>
<rect x="102" y="102" width="38" height="38" rx="5" fill="#668DA4"/>
<rect x="144.857" y="102" width="38" height="38" rx="5" fill="#668DA4"/>
<rect x="187.714" y="102" width="38" height="38" rx="5" fill="#668DA4"/>
<rect x="230.571" y="102" width="38" height="38" rx="5" fill="#668DA4"/>
<rect x="273.429" y="102" width="38" height="38" rx="5" fill="#668DA4"/>
<rect x="316.286" y="102" width="38" height="38" rx="5" fill="#668DA4"/>
<rect x="102" y="359.143" width="38" height="38" rx="5" fill="#668DA4"/>
<rect x="144.857" y="359.143" width="38" height="38" rx="5" fill="#668DA4"/>
<rect x="187.714" y="359.143" width="38" height="38" rx="5" fill="#668DA4"/>
<rect x="230.571" y="359.143" width="38" height="38" rx="5" fill="#668DA4"/>
<rect x="273.429" y="359.143" width="38" height="38" rx="5" fill="#668DA4"/>
<rect x="316.286" y="359.143" width="38" height="38" rx="5" fill="#668DA4"/>
<rect x="144.857" y="144.857" width="38" height="38" rx="5" fill="#668DA4"/>
<rect x="187.714" y="144.857" width="38" height="38" rx="5" fill="#668DA4"/>
<rect x="359.143" y="144.857" width="38" height="38" rx="5" fill="#668DA4"/>
<rect x="316.286" y="144.857" width="38" height="38" rx="5" fill="#668DA4"/>
<rect x="144.857" y="273.429" width="38" height="38" rx="5" fill="#668DA4"/>
<rect x="187.714" y="273.429" width="38" height="38" rx="5" fill="#668DA4"/>
<rect x="359.143" y="273.429" width="38" height="38" rx="5" fill="#668DA4"/>
<rect x="316.286" y="273.429" width="38" height="38" rx="5" fill="#668DA4"/>
<rect x="144.857" y="316.286" width="38" height="38" rx="5" fill="#668DA4"/>
<rect x="187.714" y="316.286" width="38" height="38" rx="5" fill="#668DA4"/>
<rect x="359.143" y="316.286" width="38" height="38" rx="5" fill="#668DA4"/>
<rect x="316.286" y="316.286" width="38" height="38" rx="5" fill="#668DA4"/>
<rect x="144.857" y="230.571" width="38" height="38" rx="5" fill="#668DA4"/>
<rect x="187.714" y="230.571" width="38" height="38" rx="5" fill="#668DA4"/>
<rect x="359.143" y="230.571" width="38" height="38" rx="5" fill="#668DA4"/>
<rect x="316.286" y="230.571" width="38" height="38" rx="5" fill="#668DA4"/>
<rect x="144.857" y="187.714" width="38" height="38" rx="5" fill="#668DA4"/>
<rect x="187.714" y="187.714" width="38" height="38" rx="5" fill="#668DA4"/>
<rect x="359.143" y="187.714" width="38" height="38" rx="5" fill="#668DA4"/>
<rect x="316.286" y="187.714" width="38" height="38" rx="5" fill="#668DA4"/>
</svg>
