<svg width="500" height="500" viewBox="0 0 500 500" fill="none" xmlns="http://www.w3.org/2000/svg">
<rect width="500" height="500" fill="white"/>
<path d="M298.587 269.769C298.587 269.769 142.31 109.151 103.86 101.709C105.101 128.995 175.798 238.141 247.735 306.358C260.138 300.824 270.68 288.373 274.401 287.753C278.122 287.133 286.184 293.955 286.184 293.955C304.168 326.823 333.935 360.311 357.501 368.993C357.501 368.993 357.501 378.295 354.4 384.496C354.4 384.496 368.664 400 371.144 400C373.625 400 399.051 380.155 398.431 368.993C384.167 349.148 321.532 284.032 298.587 269.769Z" fill="#9D0000"/>
<path d="M303.548 183.568L102 383.876C102 389.457 107 396 114 396.5C123.5 391 317.191 195.971 317.191 195.971C346.338 225.118 428.818 153.181 387.268 111.631C345.718 70.0814 270.68 150.701 303.548 183.568Z" fill="#9D0000"/>
</svg>
