<svg width="500" height="500" viewBox="0 0 500 500" fill="none" xmlns="http://www.w3.org/2000/svg">
<rect width="500" height="500" fill="white"/>
<path d="M109.658 256.824H117.287C118.78 256.824 119.83 256.635 120.436 256.258C121.089 255.851 121.416 255.183 121.416 254.254V240.972C121.416 240.043 121.089 239.39 120.436 239.013C119.83 238.606 118.78 238.403 117.287 238.403H109.658C109.145 238.403 108.888 238.563 108.888 238.882V256.345C108.888 256.664 109.145 256.824 109.658 256.824ZM100 260.699V234.527C100 233.918 100.49 233.613 101.47 233.613H118.756C122.396 233.613 125.219 234.237 127.225 235.485C129.278 236.705 130.304 238.447 130.304 240.711V254.516C130.304 256.78 129.278 258.537 127.225 259.785C125.219 261.004 122.396 261.614 118.756 261.614H101.47C100.49 261.614 100 261.309 100 260.699ZM138.334 235.66V231.871C138.334 231.29 138.801 231 139.734 231H145.823C146.756 231 147.223 231.276 147.223 231.827V235.66C147.223 236.24 146.756 236.531 145.823 236.531H139.734C138.801 236.531 138.334 236.24 138.334 235.66ZM138.334 260.699V240.319C138.334 239.709 138.801 239.405 139.734 239.405H145.753C146.733 239.405 147.223 239.709 147.223 240.319V260.699C147.223 261.077 147.106 261.324 146.873 261.44C146.686 261.556 146.336 261.614 145.823 261.614H139.804C138.824 261.614 138.334 261.309 138.334 260.699ZM167.874 260.612H165.564C161.971 260.612 159.242 260.003 157.376 258.783C155.556 257.564 154.646 255.807 154.646 253.514V246.503C154.646 244.209 155.649 242.453 157.656 241.234C159.662 240.014 162.508 239.405 166.194 239.405H182.361C183.387 239.405 183.901 239.709 183.901 240.319V261.788C183.901 264.053 182.874 265.794 180.821 267.014C178.815 268.233 175.992 268.843 172.353 268.843H158.915C158.355 268.843 157.959 268.77 157.726 268.625C157.539 268.509 157.446 268.291 157.446 267.972V264.967C157.446 264.357 157.936 264.053 158.915 264.053H170.883C172.376 264.053 173.426 263.849 174.033 263.443C174.686 263.065 175.012 262.427 175.012 261.527V258.217H174.732C174.219 259.001 173.309 259.596 172.003 260.003C170.696 260.409 169.32 260.612 167.874 260.612ZM175.012 252.512V244.674C175.012 244.355 174.732 244.195 174.173 244.195H167.594C166.101 244.195 165.051 244.398 164.444 244.805C163.838 245.182 163.535 245.835 163.535 246.764V253.253C163.535 254.182 163.838 254.835 164.444 255.212C165.051 255.59 166.101 255.778 167.594 255.778H170.183C173.403 255.778 175.012 254.69 175.012 252.512ZM191.918 235.66V231.871C191.918 231.29 192.385 231 193.318 231H199.407C200.34 231 200.806 231.276 200.806 231.827V235.66C200.806 236.24 200.34 236.531 199.407 236.531H193.318C192.385 236.531 191.918 236.24 191.918 235.66ZM191.918 260.699V240.319C191.918 239.709 192.385 239.405 193.318 239.405H199.337C200.316 239.405 200.806 239.709 200.806 240.319V260.699C200.806 261.077 200.69 261.324 200.456 261.44C200.27 261.556 199.92 261.614 199.407 261.614H193.388C192.408 261.614 191.918 261.309 191.918 260.699ZM217.608 239.405H223.977C224.537 239.405 224.817 239.564 224.817 239.884V240.885C224.817 241.205 224.537 241.364 223.977 241.364H217.608C217.188 241.364 216.978 241.495 216.978 241.756V261.091C216.978 261.44 216.722 261.614 216.208 261.614H214.179C213.666 261.614 213.409 261.44 213.409 261.091V241.756C213.409 241.495 213.199 241.364 212.779 241.364H208.3C207.787 241.364 207.53 241.205 207.53 240.885V239.884C207.53 239.564 207.787 239.405 208.3 239.405H212.779C213.199 239.405 213.409 239.274 213.409 239.013V237.097C213.409 233.032 216.372 231 222.297 231H223.977C224.537 231 224.817 231.16 224.817 231.479V232.481C224.817 232.8 224.537 232.96 223.977 232.96H222.647C220.548 232.96 219.078 233.308 218.238 234.005C217.398 234.702 216.978 235.761 216.978 237.184V239.013C216.978 239.274 217.188 239.405 217.608 239.405ZM245.025 261.614H240.546C237.513 261.614 235.11 261.062 233.337 259.959C231.61 258.856 230.747 257.346 230.747 255.43V245.588C230.747 243.672 231.61 242.163 233.337 241.059C235.11 239.956 237.513 239.405 240.546 239.405H255.383C255.849 239.405 256.083 239.579 256.083 239.927V261.091C256.083 261.44 255.849 261.614 255.383 261.614H253.354C252.84 261.614 252.584 261.44 252.584 261.091V259.349H252.304C251.09 260.859 248.664 261.614 245.025 261.614ZM252.584 255.387V241.756C252.584 241.495 252.35 241.364 251.884 241.364H240.826C238.679 241.364 237.046 241.742 235.926 242.497C234.806 243.251 234.246 244.311 234.246 245.675V255.343C234.246 256.708 234.806 257.767 235.926 258.522C237.046 259.277 238.679 259.654 240.826 259.654H245.375C247.615 259.654 249.364 259.291 250.624 258.566C251.93 257.811 252.584 256.751 252.584 255.387ZM286.523 260.133V261.135C286.523 261.454 286.267 261.614 285.753 261.614H275.675C272.643 261.614 270.24 261.062 268.467 259.959C266.741 258.856 265.877 257.346 265.877 255.43V245.588C265.877 243.672 266.741 242.163 268.467 241.059C270.24 239.956 272.643 239.405 275.675 239.405H285.753C286.267 239.405 286.523 239.564 286.523 239.884V240.929C286.523 241.219 286.267 241.364 285.753 241.364H275.955C273.809 241.364 272.176 241.742 271.056 242.497C269.936 243.251 269.376 244.311 269.376 245.675V255.343C269.376 256.708 269.936 257.767 271.056 258.522C272.176 259.277 273.809 259.654 275.955 259.654H285.753C286.267 259.654 286.523 259.814 286.523 260.133ZM295.661 241.364H291.391C290.878 241.364 290.622 241.219 290.622 240.929V239.884C290.622 239.564 290.878 239.405 291.391 239.405H295.661C296.081 239.405 296.291 239.274 296.291 239.013V235.485C296.291 235.137 296.547 234.963 297.06 234.963H299.09C299.604 234.963 299.86 235.137 299.86 235.485V239.013C299.86 239.274 300.07 239.405 300.49 239.405H308.818C309.332 239.405 309.588 239.564 309.588 239.884V240.929C309.588 241.219 309.332 241.364 308.818 241.364H300.49C300.07 241.364 299.86 241.495 299.86 241.756V255.474C299.86 256.809 300.466 257.84 301.68 258.566C302.893 259.291 304.595 259.654 306.789 259.654H309.518C310.032 259.654 310.288 259.814 310.288 260.133V261.135C310.288 261.454 310.032 261.614 309.518 261.614H306.509C303.429 261.614 300.956 261.077 299.09 260.003C297.224 258.928 296.291 257.448 296.291 255.561V241.756C296.291 241.495 296.081 241.364 295.661 241.364ZM333.501 261.614H327.482C324.449 261.614 322.047 261.062 320.274 259.959C318.548 258.856 317.684 257.346 317.684 255.43V245.588C317.684 243.672 318.548 242.163 320.274 241.059C322.047 239.956 324.449 239.405 327.482 239.405H333.501C336.534 239.405 338.936 239.956 340.71 241.059C342.483 242.163 343.369 243.672 343.369 245.588V255.43C343.369 257.346 342.483 258.856 340.71 259.959C338.936 261.062 336.534 261.614 333.501 261.614ZM327.762 259.654H333.221C335.367 259.654 337.001 259.291 338.12 258.566C339.286 257.811 339.87 256.751 339.87 255.387V245.632C339.87 244.267 339.286 243.222 338.12 242.497C337.001 241.742 335.367 241.364 333.221 241.364H327.762C325.616 241.364 323.983 241.742 322.863 242.497C321.743 243.222 321.183 244.267 321.183 245.632V255.387C321.183 256.751 321.743 257.811 322.863 258.566C323.983 259.291 325.616 259.654 327.762 259.654ZM355.834 261.614H353.804C353.337 261.614 353.105 261.44 353.105 261.091V239.927C353.105 239.579 353.337 239.405 353.804 239.405H355.834C356.346 239.405 356.604 239.579 356.604 239.927V241.756H356.884C357.396 241.147 358.306 240.609 359.613 240.145C360.919 239.651 362.529 239.405 364.442 239.405H367.172C367.684 239.405 367.942 239.564 367.942 239.884V240.929C367.942 241.248 367.684 241.393 367.172 241.364H363.883C361.595 241.364 359.799 241.8 358.494 242.671C357.234 243.542 356.604 244.717 356.604 246.198V261.091C356.604 261.44 356.346 261.614 355.834 261.614ZM376.722 268.233H374.133C373.621 268.233 373.363 268.073 373.363 267.754V266.709C373.363 266.39 373.621 266.23 374.133 266.23H376.022C377.422 266.23 378.612 266.099 379.592 265.838C380.572 265.606 381.435 265.156 382.181 264.488C382.929 263.82 383.419 263.298 383.651 262.92C384.305 262.02 384.841 261.193 385.261 260.438H383.931C383.419 260.438 383.091 260.264 382.951 259.916L371.823 239.927C371.637 239.579 371.823 239.405 372.383 239.405H374.553C375.02 239.405 375.323 239.579 375.463 239.927L385.751 258.609H386.031L396.319 239.927C396.459 239.579 396.762 239.405 397.229 239.405H399.328C399.888 239.405 400.098 239.579 399.958 239.927C391.607 255.14 387.244 263.007 386.87 263.53C386.544 264.053 385.914 264.764 384.981 265.664C383.209 267.377 380.455 268.233 376.722 268.233Z" fill="#5E2281"/>
</svg>
