<svg width="500" height="500" viewBox="0 0 500 500" fill="none" xmlns="http://www.w3.org/2000/svg">
<rect width="500" height="500" fill="black"/>
<path fill-rule="evenodd" clip-rule="evenodd" d="M100 113.636C100 106.105 106.105 100 113.636 100H250C332.843 100 400 167.157 400 250C400 332.843 332.843 400 250 400H113.636C106.105 400 100 393.895 100 386.364C100 378.832 106.105 372.727 113.636 372.727H250C317.78 372.727 372.727 317.78 372.727 250C372.727 182.22 317.78 127.273 250 127.273H113.636C106.105 127.273 100 121.168 100 113.636Z" fill="white"/>
<path fill-rule="evenodd" clip-rule="evenodd" d="M154.545 168.182C154.545 160.651 160.651 154.545 168.182 154.545H250C302.718 154.545 345.455 197.282 345.455 250C345.455 302.718 302.718 345.455 250 345.455H168.182C160.651 345.455 154.545 339.349 154.545 331.818C154.545 324.287 160.651 318.182 168.182 318.182H250C287.656 318.182 318.182 287.656 318.182 250C318.182 212.344 287.656 181.818 250 181.818H168.182C160.651 181.818 154.545 175.713 154.545 168.182Z" fill="white"/>
<path fill-rule="evenodd" clip-rule="evenodd" d="M209.091 222.727C209.091 215.196 215.196 209.091 222.727 209.091H250C272.593 209.091 290.909 227.407 290.909 250C290.909 272.593 272.593 290.909 250 290.909H222.727C215.196 290.909 209.091 284.804 209.091 277.273C209.091 269.742 215.196 263.636 222.727 263.636H250C257.531 263.636 263.636 257.531 263.636 250C263.636 242.469 257.531 236.364 250 236.364H222.727C215.196 236.364 209.091 230.258 209.091 222.727Z" fill="white"/>
</svg>
