<svg width="500" height="500" viewBox="0 0 500 500" fill="none" xmlns="http://www.w3.org/2000/svg">
<rect width="500" height="500" fill="#B0BEC5"/>
<path d="M23 500L101 350H201L272 500H23Z" fill="#FFFDE7" fill-opacity="0.5"/>
<path d="M0 500L155.5 398H345L500 500H0Z" fill="#FFFDE7" fill-opacity="0.5"/>
<path d="M191 500L279 298H379L474 500H191Z" fill="#FFFDE7" fill-opacity="0.5"/>
<path d="M161 100H131L141 150L101 350H201L151 150L161 100Z" fill="black"/>
<path d="M399 222C399 222 359 222 329 142C299 222 259 222 259 222C259 222 256.853 276.302 279 297H379C401.147 276.302 399 222 399 222Z" fill="black"/>
<path d="M350 388C350 388 280 388 250 338C222 388 150 388 150 388L155 398H345L350 388Z" fill="black"/>
<line x1="146" y1="100" x2="146" stroke="black" stroke-width="2"/>
<path d="M329 146V0" stroke="black" stroke-width="2"/>
<line x1="250" y1="4.37114e-08" x2="250" y2="340" stroke="black" stroke-width="2"/>
</svg>
