<svg width="500" height="500" viewBox="0 0 500 500" fill="none" xmlns="http://www.w3.org/2000/svg">
<rect width="500" height="500" fill="white"/>
<path d="M111.126 285.109C95.7193 276.635 96.8748 213.853 111.126 208.076C125.377 202.299 222.824 235.808 222.824 246.593C222.824 257.377 126.533 293.583 111.126 285.109Z" fill="#B0CE39"/>
<path d="M213.633 389.108C198.591 398.213 144.798 365.822 146.92 350.591C149.042 335.36 226.786 267.724 236.126 273.116C245.465 278.508 228.675 380.002 213.633 389.108Z" fill="#BED760"/>
<path d="M352.507 350.895C352.872 368.475 297.923 398.865 285.794 389.412C273.665 379.959 253.962 278.813 263.302 273.42C272.642 268.028 352.142 333.316 352.507 350.895Z" fill="#CCE083"/>
<path d="M388.874 210.89C404.281 219.363 403.125 282.145 388.874 287.923C374.623 293.7 277.176 260.191 277.176 249.406C277.176 238.622 373.467 202.416 388.874 210.89Z" fill="#DAE8A5"/>
<path d="M147.447 149.484C147.083 131.905 202.031 101.514 214.16 110.967C226.289 120.421 245.993 221.567 236.653 226.959C227.313 232.351 147.812 167.063 147.447 149.484Z" fill="#A2C502"/>
<path d="M286.322 111.272C301.363 102.166 355.156 134.558 353.034 149.788C350.912 165.019 273.169 232.656 263.829 227.263C254.489 221.871 271.28 120.377 286.322 111.272Z" fill="#E8F0C6"/>
</svg>
