<svg width="500" height="500" viewBox="0 0 500 500" fill="none" xmlns="http://www.w3.org/2000/svg">
<g clip-path="url(#clip0)">
<rect width="500" height="500" fill="white"/>
<path d="M521.489 -20H-201V702.489C81.1495 420.904 239.34 261.585 521.489 -20Z" fill="#A5D6A7"/>
<path d="M521.489 -20L160.245 341.245L521.489 702.489V-20Z" fill="#EEEEEE"/>
<path d="M521.489 702.489H-201L160.245 341.245L521.489 702.489Z" fill="#90CAF9"/>
<path d="M521.49 702.999L160.245 341.245" stroke="white" stroke-width="50"/>
<path d="M522 -19.4891L-201 702.489" stroke="white" stroke-width="50"/>
<path d="M335 207.443C335 275.86 257.711 339.223 257.711 339.223C253.195 342.926 245.805 342.926 241.289 339.223C241.289 339.223 164 275.86 164 207.443C164.001 160.254 202.28 122 249.5 122C296.72 122 335 160.254 335 207.443Z" fill="#EF5350"/>
<path d="M291.596 241.142C285.365 235.929 267.038 220.55 258.636 213.051C263.187 208.878 269.556 202.671 275.75 196.633C282.842 189.721 289.542 183.191 292.579 180.625C294.117 179.324 295 177.415 295 175.388C295 172.848 293.68 170.596 291.468 169.365C289.267 168.141 286.676 168.202 284.535 169.532C277.625 173.821 250 193.676 250 197.956C250 199.219 249.949 200.704 249.499 202.389C247.434 198.844 246.25 195.597 246.25 194.203C246.25 191.533 237.185 182.837 219.305 168.352C218.563 167.751 217.318 167.967 216.639 168.645C215.906 169.378 215.906 170.565 216.639 171.298L234.451 189.124C235.182 189.855 235.182 191.046 234.451 191.777C233.74 192.484 232.51 192.484 231.8 191.777L213.987 173.952C213.255 173.219 212.068 173.219 211.336 173.952L211.014 174.274C210.281 175.007 210.281 176.194 211.014 176.927L228.826 194.753C229.557 195.484 229.557 196.675 228.826 197.406C228.116 198.114 226.885 198.114 226.175 197.406L208.362 179.581C207.634 178.851 206.286 179.011 205.55 179.742C204.871 180.42 204.814 181.503 205.418 182.249C219.893 200.142 228.583 209.214 231.25 209.214C232.842 209.214 236.844 210.755 240.958 213.41C232.644 220.805 215.7 235.038 208.408 241.138C206.242 242.951 205.001 245.617 205.001 248.453C205.001 253.718 209.28 258 214.54 258C217.373 258 220.039 256.756 221.85 254.586C228.116 247.09 242.769 229.619 250.001 221.516C257.464 229.881 272.926 248.335 278.156 254.594C279.965 256.76 282.629 258 285.46 258C290.721 258 295 253.718 295 248.453C295 245.617 293.759 242.952 291.596 241.142Z" fill="white"/>
</g>
<defs>
<clipPath id="clip0">
<rect width="500" height="500" fill="white"/>
</clipPath>
</defs>
</svg>
