<svg width="500" height="500" viewBox="0 0 500 500" fill="none" xmlns="http://www.w3.org/2000/svg">
<rect width="500" height="500" fill="black"/>
<path d="M220.663 397.825V400H201.338V364.625H203.913V397.825H220.663ZM261.431 364.625V400H260.231C260.015 400 259.831 399.967 259.681 399.9C259.548 399.817 259.415 399.683 259.281 399.5L236.306 368.8C236.356 369.3 236.381 369.775 236.381 370.225V400H234.131V364.625H235.406C235.64 364.625 235.815 364.658 235.931 364.725C236.065 364.775 236.206 364.9 236.356 365.1L259.281 395.725C259.231 395.225 259.206 394.75 259.206 394.3V364.625H261.431ZM290.3 385.425V400H287.75V385.425L274.65 364.625H276.9C277.134 364.625 277.325 364.683 277.475 364.8C277.625 364.9 277.75 365.05 277.85 365.25L287.975 381.5C288.192 381.883 288.392 382.258 288.575 382.625C288.759 382.975 288.917 383.325 289.05 383.675C289.184 383.325 289.334 382.975 289.5 382.625C289.667 382.258 289.859 381.883 290.075 381.5L300.2 365.25C300.284 365.067 300.4 364.917 300.55 364.8C300.717 364.683 300.917 364.625 301.15 364.625H303.4L290.3 385.425Z" fill="white"/>
<circle cx="250" cy="250" r="73.5" stroke="white" stroke-width="3"/>
<line x1="197.742" y1="196.985" x2="220.924" y2="220.167" stroke="white" stroke-width="3"/>
</svg>
