<svg width="1000" height="1000" viewBox="0 0 1000 1000" fill="none" xmlns="http://www.w3.org/2000/svg">
<rect width="1000" height="1000" fill="black"/>
<path d="M345.4 461.2C353.933 461.2 361.533 462.933 368.2 466.4C375 469.733 380.333 474.933 384.2 482C388.067 488.933 390 497.867 390 508.8V570.4H358.8V513.6C358.8 504.933 356.867 498.533 353 494.4C349.267 490.267 343.933 488.2 337 488.2C332.067 488.2 327.6 489.267 323.6 491.4C319.733 493.4 316.667 496.533 314.4 500.8C312.267 505.067 311.2 510.533 311.2 517.2V570.4H280V462.8H309.8V492.6L304.2 483.6C308.067 476.4 313.6 470.867 320.8 467C328 463.133 336.2 461.2 345.4 461.2ZM470.263 572C458.796 572 448.596 569.6 439.663 564.8C430.863 560 423.863 553.467 418.663 545.2C413.596 536.8 411.063 527.267 411.063 516.6C411.063 505.8 413.596 496.267 418.663 488C423.863 479.6 430.863 473.067 439.663 468.4C448.596 463.6 458.796 461.2 470.263 461.2C481.596 461.2 491.729 463.6 500.663 468.4C509.596 473.067 516.596 479.533 521.663 487.8C526.729 496.067 529.263 505.667 529.263 516.6C529.263 527.267 526.729 536.8 521.663 545.2C516.596 553.467 509.596 560 500.663 564.8C491.729 569.6 481.596 572 470.263 572ZM470.263 546.4C475.463 546.4 480.129 545.2 484.263 542.8C488.396 540.4 491.663 537 494.063 532.6C496.463 528.067 497.663 522.733 497.663 516.6C497.663 510.333 496.463 505 494.063 500.6C491.663 496.2 488.396 492.8 484.263 490.4C480.129 488 475.463 486.8 470.263 486.8C465.063 486.8 460.396 488 456.263 490.4C452.129 492.8 448.796 496.2 446.263 500.6C443.863 505 442.663 510.333 442.663 516.6C442.663 522.733 443.863 528.067 446.263 532.6C448.796 537 452.129 540.4 456.263 542.8C460.396 545.2 465.063 546.4 470.263 546.4ZM550.117 570.4V462.8H581.317V570.4H550.117ZM656.473 572C646.34 572 637.207 569.733 629.073 565.2C620.94 560.533 614.473 554.067 609.673 545.8C605.007 537.533 602.673 527.8 602.673 516.6C602.673 505.267 605.007 495.467 609.673 487.2C614.473 478.933 620.94 472.533 629.073 468C637.207 463.467 646.34 461.2 656.473 461.2C665.54 461.2 673.473 463.2 680.273 467.2C687.073 471.2 692.34 477.267 696.073 485.4C699.807 493.533 701.673 503.933 701.673 516.6C701.673 529.133 699.873 539.533 696.273 547.8C692.673 555.933 687.473 562 680.673 566C674.007 570 665.94 572 656.473 572ZM661.873 546.4C666.94 546.4 671.54 545.2 675.673 542.8C679.807 540.4 683.073 537 685.473 532.6C688.007 528.067 689.273 522.733 689.273 516.6C689.273 510.333 688.007 505 685.473 500.6C683.073 496.2 679.807 492.8 675.673 490.4C671.54 488 666.94 486.8 661.873 486.8C656.673 486.8 652.007 488 647.873 490.4C643.74 492.8 640.407 496.2 637.873 500.6C635.473 505 634.273 510.333 634.273 516.6C634.273 522.733 635.473 528.067 637.873 532.6C640.407 537 643.74 540.4 647.873 542.8C652.007 545.2 656.673 546.4 661.873 546.4ZM690.073 570.4V548.4L690.673 516.4L688.673 484.6V422H719.873V570.4H690.073Z" fill="white"/>
<path d="M550.917 435C554.517 438.333 559.184 440 564.917 440C570.784 440 575.451 438.333 578.917 435C582.517 431.533 584.317 427.2 584.317 422C584.317 417.067 582.517 413.067 578.917 410C575.317 406.8 570.651 405.2 564.917 405.2C559.184 405.2 554.517 406.867 550.917 410.2C547.317 413.533 545.517 417.667 545.517 422.6C545.517 427.533 547.317 431.667 550.917 435Z" fill="white"/>
<path d="M522.6 407L415 407V438.2L522.6 438.2V407Z" fill="white"/>
</svg>
