<svg width="500" height="501" viewBox="0 0 500 501" fill="none" xmlns="http://www.w3.org/2000/svg">
<rect width="500" height="500.144" fill="white"/>
<path d="M282.53 177.361C280.624 172.509 277.332 168.351 272.827 164.886C268.236 161.421 262.778 159.775 256.367 159.775C247.704 159.775 240.427 162.893 234.45 169.044C228.472 175.282 225.094 183.598 224.314 194.08H285.648C285.475 187.843 284.435 182.212 282.53 177.361Z" fill="#E73942"/>
<path d="M250.043 100C208.634 100 175.022 133.612 175.022 175.108C175.022 202.83 190.009 226.913 212.273 239.994C206.815 230.638 204.129 219.376 204.129 206.122C204.129 188.363 209.067 173.982 218.856 162.98C228.646 151.978 240.947 146.52 255.761 146.52C270.315 146.52 282.096 151.545 290.933 161.681C299.769 171.816 304.36 186.89 304.62 207.075H223.534C223.534 223.968 227.086 235.403 234.103 241.294C240.601 246.665 247.358 249.61 254.548 250.043C293.791 247.704 324.978 215.131 324.978 175.195V100H250.043Z" fill="#E73942"/>
<path d="M135.518 367.514L142.449 368.9C141.149 372.971 138.724 376.437 134.999 379.122C131.36 381.808 127.029 383.194 122.004 383.194C115.42 383.194 110.136 380.855 106.064 376.263C101.992 371.672 100 365.608 100 358.071C100 350.448 102.079 344.21 106.324 339.532C110.569 334.854 115.853 332.428 122.264 332.428C128.501 332.428 133.612 334.594 137.424 338.926C141.236 343.257 143.228 349.755 143.315 358.418H108.403C108.403 365.694 109.962 370.546 112.995 373.145C116.027 375.657 119.232 376.956 122.61 376.956C128.761 376.956 133.006 373.838 135.518 367.514ZM135.085 352.873C134.999 350.188 134.565 347.762 133.786 345.683C132.919 343.604 131.533 341.785 129.627 340.312C127.635 338.839 125.296 338.059 122.524 338.059C118.799 338.059 115.68 339.359 113.081 342.044C110.482 344.73 109.01 348.282 108.75 352.787H135.085V352.873Z" fill="#A6A9AB"/>
<path d="M192.434 381.808H185.417V350.881C185.417 346.463 184.464 343.344 182.472 341.525C180.566 339.705 178.227 338.839 175.455 338.839C171.643 338.839 168.438 340.398 165.839 343.43C163.24 346.463 161.941 350.534 161.941 355.472V381.808H154.49V333.728H161.421V342.564C165.319 335.807 170.344 332.342 176.581 332.342C180.133 332.342 183.252 333.295 185.764 335.114C188.276 336.933 190.009 339.099 190.962 341.351C191.915 343.69 192.348 347.849 192.348 353.913V381.808H192.434Z" fill="#A6A9AB"/>
<path d="M239.128 367.514L246.058 368.9C244.759 372.971 242.333 376.437 238.608 379.122C234.97 381.808 230.552 383.194 225.614 383.194C219.03 383.194 213.745 380.855 209.674 376.263C205.602 371.672 203.61 365.608 203.61 358.071C203.61 350.448 205.689 344.21 209.934 339.532C214.178 334.854 219.463 332.428 225.874 332.428C232.111 332.428 237.222 334.594 241.034 338.926C244.845 343.257 246.838 349.755 246.925 358.418H212.013C212.013 365.694 213.572 370.546 216.604 373.145C219.636 375.657 222.841 376.956 226.22 376.956C232.284 376.956 236.616 373.838 239.128 367.514ZM238.695 352.873C238.608 350.188 238.175 347.762 237.395 345.683C236.529 343.604 235.143 341.785 233.237 340.312C231.245 338.839 228.906 338.059 226.133 338.059C222.408 338.059 219.29 339.359 216.691 342.044C214.092 344.73 212.619 348.282 212.359 352.787H238.695V352.873Z" fill="#A6A9AB"/>
<path d="M265.55 381.808H258.1V333.728H264.684V344.99C267.023 339.705 269.362 336.24 271.614 334.681C273.953 333.122 276.292 332.342 278.805 332.342C279.584 332.342 280.537 332.428 281.75 332.515V339.619H280.277C276.119 339.619 272.74 341.178 269.968 344.21C267.283 347.329 265.81 351.314 265.637 356.338V381.808H265.55Z" fill="#A6A9AB"/>
<path d="M329.483 326.191V332.169C326.018 332.169 323.766 332.602 322.639 333.381C321.513 334.161 320.733 335.634 320.3 337.626C323.419 341.178 324.892 345.077 324.892 349.235C324.892 353.653 323.246 357.378 319.867 360.497C316.489 363.615 311.984 365.175 306.353 365.175C305.053 365.175 304.014 365.088 303.061 364.915C301.328 364.568 300.202 364.395 299.769 364.395C298.903 364.395 297.863 364.828 296.65 365.694C295.437 366.561 294.831 367.6 294.831 368.986C294.831 370.892 295.697 372.105 297.43 372.712C299.163 373.318 303.321 373.664 309.731 373.838C315.189 374.011 319.261 374.357 321.86 374.964C324.459 375.57 326.711 376.87 328.53 378.862C330.349 380.855 331.216 383.367 331.216 386.226C331.216 395.409 323.159 400 307.046 400C299.422 400 293.792 398.874 290.326 396.535C286.774 394.196 285.042 391.164 285.042 387.352C285.042 382.674 287.468 379.469 292.405 377.736C289.287 375.657 287.727 373.058 287.727 369.939C287.727 366.214 289.98 363.355 294.398 361.45C290.24 358.071 288.161 353.826 288.161 348.715C288.161 343.95 289.98 340.052 293.532 337.02C297.083 333.988 301.415 332.429 306.526 332.429C310.165 332.429 313.457 333.122 316.402 334.508C316.922 331.389 317.961 329.223 319.694 328.01C321.427 326.798 324.025 326.191 327.577 326.191C328.01 326.105 328.617 326.191 329.483 326.191ZM297.69 379.815C294.225 381.375 292.492 383.54 292.492 386.399C292.492 388.825 293.965 390.731 296.824 392.117C299.682 393.503 303.321 394.109 307.826 394.109C311.984 394.109 315.709 393.503 319.174 392.377C322.639 391.25 324.285 389.258 324.285 386.486C324.285 385.013 323.766 383.8 322.726 382.847C321.686 381.894 320.3 381.288 318.568 381.028C316.835 380.768 313.716 380.595 309.385 380.422C304.1 380.422 300.202 380.162 297.69 379.815ZM306.613 359.544C309.818 359.544 312.33 358.591 314.409 356.598C316.402 354.692 317.442 352.094 317.442 348.975C317.442 345.77 316.402 343.171 314.323 341.178C312.244 339.186 309.731 338.146 306.786 338.146C303.927 338.146 301.415 339.099 299.249 341.005C297.083 342.911 295.957 345.596 295.957 349.061C295.957 352.18 296.91 354.692 298.903 356.598C300.895 358.591 303.407 359.544 306.613 359.544Z" fill="#A6A9AB"/>
<path d="M345.596 333.728V381.808H338.146V333.728H345.596Z" fill="#A6A9AB"/>
<path d="M392.203 367.514L399.134 368.9C397.834 372.971 395.409 376.437 391.684 379.122C387.958 381.808 383.714 383.194 378.689 383.194C372.105 383.194 366.821 380.855 362.749 376.263C358.677 371.672 356.685 365.608 356.685 358.071C356.685 350.448 358.764 344.21 363.009 339.532C367.254 334.854 372.538 332.428 378.862 332.428C385.186 332.428 390.211 334.594 394.023 338.926C397.834 343.257 399.827 349.755 399.913 358.418H365.001C365.001 365.694 366.561 370.546 369.593 373.145C372.625 375.657 375.83 376.956 379.209 376.956C385.36 376.956 389.691 373.838 392.203 367.514ZM391.77 352.873C391.684 350.188 391.25 347.762 390.471 345.683C389.691 343.604 388.218 341.785 386.312 340.312C384.32 338.839 381.981 338.059 379.209 338.059C375.484 338.059 372.365 339.359 369.766 342.044C367.167 344.73 365.694 348.282 365.435 352.787H391.77V352.873Z" fill="#A6A9AB"/>
<path d="M128.588 322.553C110.656 322.553 100.087 308.692 100.087 291.193C100.087 273.693 110.656 259.833 128.588 259.833C146.434 259.833 157.003 273.693 157.003 291.193C157.003 308.692 146.521 322.553 128.588 322.553ZM128.588 319.347C144.182 319.347 153.278 306.526 153.278 291.193C153.278 275.859 144.182 263.038 128.588 263.038C112.908 263.038 103.812 275.859 103.812 291.193C103.812 306.526 112.995 319.347 128.588 319.347Z" fill="#E73942"/>
<path d="M175.022 260.092H200.491C207.248 260.092 217.904 262.518 217.904 276.899C217.904 287.381 211.06 293.358 199.105 293.358H178.66V320.04H174.935V260.092H175.022ZM178.66 290.066H199.711C210.54 290.066 214.178 282.963 214.178 276.725C214.178 272.307 212.186 263.211 200.144 263.211H178.573V290.066H178.66Z" fill="#E73942"/>
<path d="M275.253 316.748V319.954H234.623V260.092H274.82V263.298H238.262V287.294H272.654V290.5H238.262V316.748H275.253Z" fill="#E73942"/>
<path d="M291.626 260.092H316.575C327.057 260.092 335.547 263.904 335.547 275.513C335.547 283.569 330.696 289.547 322.726 290.846V291.019C331.649 292.059 333.815 297.603 334.421 303.841C335.027 310.078 333.988 316.748 336.414 319.954H332.255C330.003 315.882 331.302 308.952 330.696 303.148C329.916 297.343 327.057 292.665 316.575 292.665H295.264V319.867H291.539V260.092H291.626ZM316.575 289.46C325.325 289.46 331.822 285.388 331.822 275.686C331.822 266.676 324.632 263.211 316.575 263.211H295.264V289.46H316.575Z" fill="#E73942"/>
<path d="M376.263 260.092L399.913 319.954H396.015L388.478 300.722H359.804L352.18 319.954H348.282L372.365 260.092H376.263ZM387.265 297.517L374.444 263.644H374.271L360.93 297.517H387.265Z" fill="#E73942"/>
</svg>
