<svg width="500" height="500" viewBox="0 0 500 500" fill="none" xmlns="http://www.w3.org/2000/svg">
<rect width="500" height="500" fill="white"/>
<path d="M112.991 278.152C110.239 278.152 107.903 277.736 105.983 276.904C104.127 276.072 102.591 274.92 101.375 273.448C100.223 271.912 99.359 270.12 98.783 268.072C98.271 265.96 98.015 263.624 98.015 261.064V238.6H91.295V230.344L98.591 229.864L99.935 217H109.151V229.864H121.151V238.6H109.151V261.064C109.151 266.568 111.359 269.32 115.775 269.32C116.607 269.32 117.439 269.224 118.271 269.032C119.167 268.84 119.967 268.584 120.671 268.264L122.591 276.424C121.311 276.872 119.839 277.256 118.175 277.576C116.575 277.96 114.847 278.152 112.991 278.152ZM131.071 277V229.864H140.191L140.959 238.216H141.343C143.007 235.144 145.023 232.808 147.391 231.208C149.759 229.544 152.191 228.712 154.687 228.712C156.927 228.712 158.719 229.032 160.063 229.672L158.143 239.272C157.311 239.016 156.543 238.824 155.839 238.696C155.135 238.568 154.271 238.504 153.247 238.504C151.391 238.504 149.439 239.24 147.391 240.712C145.343 242.12 143.583 244.616 142.111 248.2V277H131.071ZM175.776 278.152C171.616 278.152 168.256 276.904 165.696 274.408C163.136 271.848 161.856 268.488 161.856 264.328C161.856 261.832 162.368 259.624 163.392 257.704C164.48 255.72 166.144 254.024 168.384 252.616C170.688 251.208 173.568 250.024 177.024 249.064C180.544 248.104 184.736 247.368 189.6 246.856C189.536 245.64 189.344 244.488 189.024 243.4C188.768 242.248 188.288 241.256 187.584 240.424C186.944 239.528 186.08 238.856 184.992 238.408C183.904 237.896 182.56 237.64 180.96 237.64C178.656 237.64 176.384 238.088 174.144 238.984C171.968 239.88 169.824 240.968 167.712 242.248L163.68 234.856C166.304 233.192 169.248 231.752 172.512 230.536C175.776 229.32 179.296 228.712 183.072 228.712C188.96 228.712 193.344 230.472 196.224 233.992C199.168 237.448 200.64 242.472 200.64 249.064V277H191.52L190.752 271.816H190.368C188.256 273.608 185.984 275.112 183.552 276.328C181.184 277.544 178.592 278.152 175.776 278.152ZM179.328 269.512C181.248 269.512 182.976 269.064 184.512 268.168C186.112 267.272 187.808 265.992 189.6 264.328V253.768C186.4 254.152 183.712 254.664 181.536 255.304C179.36 255.944 177.6 256.68 176.256 257.512C174.912 258.28 173.952 259.176 173.376 260.2C172.8 261.224 172.512 262.312 172.512 263.464C172.512 265.576 173.152 267.112 174.432 268.072C175.712 269.032 177.344 269.512 179.328 269.512ZM224.412 277L207.996 229.864H219.228L226.716 254.344C227.356 256.648 227.996 258.984 228.636 261.352C229.34 263.72 230.012 266.12 230.652 268.552H231.036C231.74 266.12 232.412 263.72 233.052 261.352C233.692 258.984 234.364 256.648 235.068 254.344L242.556 229.864H253.212L237.18 277H224.412ZM261.383 277V229.864H272.423V277H261.383ZM266.951 221.608C264.967 221.608 263.335 221.032 262.055 219.88C260.775 218.728 260.135 217.224 260.135 215.368C260.135 213.512 260.775 212.008 262.055 210.856C263.335 209.64 264.967 209.032 266.951 209.032C268.935 209.032 270.567 209.64 271.847 210.856C273.127 212.008 273.767 213.512 273.767 215.368C273.767 217.224 273.127 218.728 271.847 219.88C270.567 221.032 268.935 221.608 266.951 221.608ZM297.932 278.152C293.772 278.152 290.412 276.904 287.852 274.408C285.292 271.848 284.012 268.488 284.012 264.328C284.012 261.832 284.524 259.624 285.548 257.704C286.636 255.72 288.3 254.024 290.54 252.616C292.844 251.208 295.724 250.024 299.18 249.064C302.7 248.104 306.892 247.368 311.756 246.856C311.692 245.64 311.5 244.488 311.18 243.4C310.924 242.248 310.444 241.256 309.74 240.424C309.1 239.528 308.236 238.856 307.148 238.408C306.06 237.896 304.716 237.64 303.116 237.64C300.812 237.64 298.54 238.088 296.3 238.984C294.124 239.88 291.98 240.968 289.868 242.248L285.836 234.856C288.46 233.192 291.404 231.752 294.668 230.536C297.932 229.32 301.452 228.712 305.228 228.712C311.116 228.712 315.5 230.472 318.38 233.992C321.324 237.448 322.796 242.472 322.796 249.064V277H313.676L312.908 271.816H312.524C310.412 273.608 308.14 275.112 305.708 276.328C303.34 277.544 300.748 278.152 297.932 278.152ZM301.484 269.512C303.404 269.512 305.132 269.064 306.668 268.168C308.268 267.272 309.964 265.992 311.756 264.328V253.768C308.556 254.152 305.868 254.664 303.692 255.304C301.516 255.944 299.756 256.68 298.412 257.512C297.068 258.28 296.108 259.176 295.532 260.2C294.956 261.224 294.668 262.312 294.668 263.464C294.668 265.576 295.308 267.112 296.588 268.072C297.868 269.032 299.5 269.512 301.484 269.512ZM351.116 278.152C348.364 278.152 346.028 277.736 344.108 276.904C342.252 276.072 340.716 274.92 339.5 273.448C338.348 271.912 337.484 270.12 336.908 268.072C336.396 265.96 336.14 263.624 336.14 261.064V238.6H329.42V230.344L336.716 229.864L338.06 217H347.276V229.864H359.276V238.6H347.276V261.064C347.276 266.568 349.484 269.32 353.9 269.32C354.732 269.32 355.564 269.224 356.396 269.032C357.292 268.84 358.092 268.584 358.796 268.264L360.716 276.424C359.436 276.872 357.964 277.256 356.3 277.576C354.7 277.96 352.972 278.152 351.116 278.152ZM378.557 278.152C374.397 278.152 371.037 276.904 368.477 274.408C365.917 271.848 364.637 268.488 364.637 264.328C364.637 261.832 365.149 259.624 366.173 257.704C367.261 255.72 368.925 254.024 371.165 252.616C373.469 251.208 376.349 250.024 379.805 249.064C383.325 248.104 387.517 247.368 392.381 246.856C392.317 245.64 392.125 244.488 391.805 243.4C391.549 242.248 391.069 241.256 390.365 240.424C389.725 239.528 388.861 238.856 387.773 238.408C386.685 237.896 385.341 237.64 383.741 237.64C381.437 237.64 379.165 238.088 376.925 238.984C374.749 239.88 372.605 240.968 370.493 242.248L366.461 234.856C369.085 233.192 372.029 231.752 375.293 230.536C378.557 229.32 382.077 228.712 385.853 228.712C391.741 228.712 396.125 230.472 399.005 233.992C401.949 237.448 403.421 242.472 403.421 249.064V277H394.301L393.533 271.816H393.149C391.037 273.608 388.765 275.112 386.333 276.328C383.965 277.544 381.373 278.152 378.557 278.152ZM382.109 269.512C384.029 269.512 385.757 269.064 387.293 268.168C388.893 267.272 390.589 265.992 392.381 264.328V253.768C389.181 254.152 386.493 254.664 384.317 255.304C382.141 255.944 380.381 256.68 379.037 257.512C377.693 258.28 376.733 259.176 376.157 260.2C375.581 261.224 375.293 262.312 375.293 263.464C375.293 265.576 375.933 267.112 377.213 268.072C378.493 269.032 380.125 269.512 382.109 269.512Z" fill="#E73942"/>
<g clip-path="url(#clip0)">
<path d="M295.68 292.453C295.505 292.015 295.215 291.635 294.808 291.313C294.401 290.992 293.907 290.846 293.325 290.846C292.54 290.846 291.901 291.138 291.349 291.693C290.825 292.248 290.506 293.008 290.447 293.944H295.97C295.941 293.388 295.854 292.891 295.68 292.453Z" fill="#E73942"/>
<path d="M292.744 285.438C289.023 285.438 286 288.478 286 292.248C286 294.762 287.366 296.925 289.343 298.123C288.849 297.246 288.616 296.223 288.616 295.025C288.616 293.418 289.052 292.102 289.953 291.109C290.854 290.115 291.959 289.618 293.267 289.618C294.575 289.618 295.622 290.086 296.436 290.992C297.249 291.898 297.627 293.271 297.656 295.113H290.36C290.36 296.633 290.68 297.685 291.32 298.211C291.901 298.708 292.511 298.971 293.151 299C296.697 298.795 299.488 295.843 299.488 292.219V285.438H292.744Z" fill="#E73942"/>
<path d="M357.595 293.388L358.787 293.651C358.555 294.353 358.148 294.937 357.508 295.434C356.869 295.902 356.142 296.136 355.27 296.136C354.136 296.136 353.235 295.727 352.537 294.937C351.84 294.148 351.491 293.096 351.491 291.81C351.491 290.495 351.84 289.413 352.596 288.595C353.322 287.777 354.223 287.367 355.328 287.367C356.403 287.367 357.276 287.747 357.944 288.507C358.584 289.267 358.932 290.378 358.961 291.868H352.973C352.973 293.125 353.235 293.973 353.758 294.411C354.281 294.85 354.834 295.054 355.415 295.054C356.403 294.996 357.159 294.47 357.595 293.388ZM357.508 290.846C357.508 290.378 357.421 289.969 357.276 289.618C357.13 289.267 356.898 288.946 356.549 288.712C356.229 288.449 355.793 288.332 355.328 288.332C354.688 288.332 354.165 288.566 353.7 289.033C353.235 289.501 353.002 290.115 352.944 290.875L357.508 290.846Z" fill="#A6A8AA"/>
<path d="M367.333 295.843H366.141V290.495C366.141 289.735 365.967 289.18 365.647 288.887C365.327 288.595 364.92 288.42 364.455 288.42C363.816 288.42 363.264 288.683 362.799 289.209C362.362 289.735 362.13 290.436 362.13 291.284V295.843H360.851V287.543H362.043V289.063C362.711 287.894 363.583 287.309 364.659 287.309C365.269 287.309 365.793 287.484 366.229 287.806C366.665 288.127 366.955 288.478 367.101 288.887C367.275 289.296 367.333 290.027 367.333 291.05V295.843Z" fill="#A6A8AA"/>
<path d="M375.356 293.388L376.548 293.651C376.315 294.353 375.908 294.937 375.269 295.434C374.629 295.902 373.903 296.136 373.031 296.136C371.897 296.136 370.967 295.727 370.298 294.937C369.6 294.148 369.252 293.096 369.252 291.81C369.252 290.495 369.601 289.413 370.356 288.595C371.083 287.777 371.984 287.367 373.089 287.367C374.164 287.367 375.036 287.747 375.705 288.507C376.344 289.267 376.693 290.378 376.722 291.868H370.734C370.734 293.125 370.996 293.973 371.519 294.411C372.042 294.85 372.595 295.054 373.176 295.054C374.193 294.996 374.949 294.47 375.356 293.388ZM375.298 290.846C375.298 290.378 375.211 289.969 375.065 289.618C374.92 289.267 374.687 288.946 374.339 288.712C374.019 288.449 373.583 288.332 373.118 288.332C372.478 288.332 371.955 288.566 371.49 289.033C371.054 289.501 370.792 290.115 370.734 290.875L375.298 290.846Z" fill="#A6A8AA"/>
<path d="M379.92 295.843H378.641V287.543H379.774V289.472C380.181 288.566 380.588 287.981 380.966 287.689C381.373 287.397 381.78 287.28 382.187 287.28C382.303 287.28 382.478 287.28 382.71 287.309V288.537H382.449C381.751 288.537 381.141 288.8 380.676 289.326C380.21 289.852 379.949 290.553 379.92 291.43V295.843Z" fill="#A6A8AA"/>
<path d="M390.908 286.257V287.28C390.326 287.28 389.919 287.338 389.745 287.484C389.541 287.63 389.425 287.864 389.338 288.215C389.861 288.829 390.123 289.501 390.123 290.232C390.123 290.992 389.832 291.635 389.251 292.19C388.669 292.745 387.914 293.008 386.925 293.008C386.693 293.008 386.518 293.008 386.344 292.979C386.053 292.921 385.85 292.891 385.762 292.891C385.617 292.891 385.443 292.95 385.239 293.125C385.036 293.271 384.949 293.447 384.949 293.681C384.949 294.002 385.094 294.236 385.414 294.324C385.704 294.411 386.431 294.499 387.536 294.528C388.466 294.557 389.163 294.616 389.629 294.733C390.065 294.82 390.472 295.054 390.762 295.405C391.053 295.756 391.227 296.194 391.227 296.691C391.227 298.269 389.832 299.058 387.071 299.058C385.762 299.058 384.803 298.854 384.193 298.474C383.582 298.094 383.292 297.539 383.292 296.896C383.292 296.077 383.699 295.522 384.542 295.23C383.989 294.879 383.728 294.411 383.728 293.885C383.728 293.242 384.106 292.745 384.89 292.395C384.164 291.81 383.815 291.079 383.815 290.202C383.815 289.384 384.106 288.712 384.716 288.186C385.326 287.66 386.082 287.397 386.954 287.397C387.565 287.397 388.146 287.514 388.64 287.747C388.727 287.192 388.931 286.841 389.222 286.607C389.512 286.374 389.977 286.315 390.588 286.315C390.646 286.228 390.762 286.228 390.908 286.257ZM385.443 295.493C384.861 295.756 384.542 296.136 384.542 296.633C384.542 297.042 384.803 297.392 385.268 297.626C385.762 297.86 386.402 297.977 387.158 297.977C387.855 297.977 388.524 297.889 389.105 297.685C389.687 297.48 389.977 297.129 389.977 296.662C389.977 296.399 389.89 296.194 389.716 296.048C389.541 295.873 389.309 295.785 388.989 295.756C388.698 295.726 388.146 295.668 387.419 295.668C386.518 295.61 385.85 295.551 385.443 295.493ZM386.983 291.985C387.536 291.985 387.972 291.81 388.321 291.489C388.669 291.167 388.844 290.699 388.844 290.173C388.844 289.618 388.669 289.18 388.291 288.829C387.943 288.478 387.507 288.303 386.983 288.303C386.489 288.303 386.082 288.478 385.704 288.8C385.326 289.121 385.123 289.589 385.123 290.202C385.123 290.758 385.297 291.167 385.646 291.518C385.966 291.839 386.402 291.985 386.983 291.985Z" fill="#A6A8AA"/>
<path d="M393.669 287.543V295.843H392.39V287.543H393.669Z" fill="#A6A8AA"/>
<path d="M401.692 293.388L402.884 293.651C402.651 294.353 402.244 294.937 401.605 295.434C400.965 295.902 400.239 296.136 399.366 296.136C398.233 296.136 397.332 295.727 396.634 294.937C395.936 294.148 395.588 293.096 395.588 291.81C395.588 290.495 395.936 289.413 396.692 288.595C397.419 287.777 398.32 287.367 399.425 287.367C400.5 287.367 401.372 287.747 402.041 288.507C402.68 289.267 403.029 290.378 403.058 291.868H397.07C397.07 293.125 397.332 293.973 397.855 294.411C398.378 294.85 398.93 295.054 399.512 295.054C400.5 294.996 401.256 294.47 401.692 293.388ZM401.605 290.846C401.605 290.378 401.518 289.969 401.372 289.618C401.227 289.267 400.994 288.946 400.645 288.712C400.326 288.449 399.89 288.332 399.425 288.332C398.785 288.332 398.262 288.566 397.797 289.033C397.361 289.501 397.099 290.115 397.041 290.875L401.605 290.846Z" fill="#A6A8AA"/>
<path d="M309.255 296.106C306.726 296.106 305.243 294.148 305.243 291.664C305.243 289.18 306.697 287.192 309.255 287.192C311.755 287.192 313.266 289.15 313.266 291.635C313.266 294.119 311.755 296.106 309.255 296.106ZM309.255 295.639C311.435 295.639 312.743 293.827 312.743 291.664C312.743 289.501 311.435 287.66 309.255 287.66C307.045 287.66 305.766 289.472 305.766 291.635C305.737 293.827 307.016 295.639 309.255 295.639Z" fill="#E73942"/>
<path d="M315.766 287.221H319.37C320.33 287.221 321.812 287.572 321.812 289.589C321.812 291.079 320.853 291.927 319.167 291.927H316.289V295.697H315.766V287.221ZM316.289 291.489H319.254C320.766 291.489 321.289 290.495 321.289 289.589C321.289 288.946 320.998 287.689 319.312 287.689H316.289V291.489Z" fill="#E73942"/>
<path d="M329.922 295.259V295.727H324.196V287.221H329.864V287.689H324.719V291.079H329.544V291.518H324.69V295.23L329.922 295.259Z" fill="#E73942"/>
<path d="M332.219 287.221H335.736C337.218 287.221 338.41 287.777 338.41 289.413C338.41 290.553 337.742 291.401 336.608 291.576V291.605C337.858 291.752 338.178 292.541 338.265 293.418C338.352 294.294 338.207 295.259 338.556 295.697H337.974C337.654 295.113 337.858 294.148 337.742 293.33C337.625 292.512 337.218 291.839 335.765 291.839H332.771V295.697H332.219V287.221ZM335.736 291.401C336.957 291.401 337.887 290.816 337.887 289.443C337.887 288.157 336.87 287.66 335.736 287.66H332.742V291.372L335.736 291.401Z" fill="#E73942"/>
<path d="M344.166 287.221L347.509 295.697H346.956L345.881 292.979H341.811L340.736 295.697H340.183L343.584 287.221H344.166V287.221ZM345.706 292.541L343.904 287.747H343.875L341.986 292.541H345.706Z" fill="#E73942"/>
<path d="M392.216 285.731C392.216 285.292 392.564 285 393.03 285C393.495 285 393.843 285.322 393.843 285.731C393.843 286.14 393.495 286.461 393.03 286.461C392.564 286.491 392.216 286.14 392.216 285.731Z" fill="#A6A8AA"/>
</g>
<defs>
<clipPath id="clip0">
<rect width="117" height="14" fill="white" transform="translate(286 285)"/>
</clipPath>
</defs>
</svg>
