<svg width="500" height="500" viewBox="0 0 500 500" fill="none" xmlns="http://www.w3.org/2000/svg">
<rect width="500" height="500" fill="white"/>
<path d="M144.99 232.236H140.476V267.225H144.99V232.236Z" fill="#E73942"/>
<path d="M175.583 254.067C175.583 250.615 174.639 247.695 172.78 245.394C170.184 242.089 166.673 240.437 162.366 240.437C158.147 240.437 154.725 242.06 152.218 245.305C150.241 247.813 149.238 250.733 149.238 253.949C149.238 257.371 150.418 260.469 152.749 263.154C155.109 265.897 158.383 267.254 162.514 267.254C164.372 267.254 166.054 266.959 167.558 266.399C169.033 265.838 170.39 265.012 171.6 263.921C172.78 262.829 173.842 261.383 174.727 259.643L175.022 259.053L171.246 257.047L170.921 257.607C170.007 259.141 169.151 260.233 168.384 260.882C167.647 261.531 166.703 262.062 165.611 262.475C164.52 262.888 163.399 263.095 162.248 263.095C159.858 263.095 157.941 262.268 156.318 260.587C154.843 259.082 154.017 257.135 153.84 254.805H175.583V254.067ZM154.401 250.704C154.991 249.052 155.758 247.754 156.731 246.869C158.324 245.453 160.183 244.745 162.396 244.745C163.723 244.745 165.021 245.04 166.231 245.6C167.44 246.161 168.414 246.898 169.151 247.813C169.741 248.55 170.243 249.524 170.597 250.704H154.401V250.704Z" fill="#E73942"/>
<path d="M201.603 259.053C199.479 261.737 196.765 263.036 193.372 263.036C191.543 263.036 189.891 262.622 188.445 261.826C187 261.029 185.849 259.908 185.023 258.463C184.197 257.017 183.755 255.424 183.755 253.802C183.755 251.235 184.64 249.14 186.469 247.341C188.298 245.541 190.569 244.686 193.372 244.686C196.883 244.686 199.567 245.984 201.573 248.698L201.957 249.199L205.527 246.957L205.202 246.397C204.435 245.099 203.491 244.007 202.37 243.181C201.278 242.355 199.921 241.676 198.358 241.175C196.794 240.673 195.172 240.408 193.52 240.408C190.864 240.408 188.416 240.998 186.262 242.178C184.109 243.358 182.397 245.04 181.129 247.134C179.89 249.229 179.241 251.559 179.241 254.038C179.241 257.696 180.598 260.852 183.253 263.39C185.908 265.927 189.271 267.225 193.224 267.225C195.821 267.225 198.181 266.723 200.216 265.72C202.281 264.717 203.934 263.272 205.173 261.442L205.556 260.882L201.986 258.551L201.603 259.053Z" fill="#E73942"/>
<path d="M252.05 240.408C248.127 240.408 244.852 241.853 242.256 244.715C239.925 247.311 238.745 250.409 238.745 253.92C238.745 257.46 239.984 260.587 242.462 263.242C244.941 265.897 248.156 267.254 252.05 267.254C255.915 267.254 259.16 265.897 261.638 263.242C264.116 260.587 265.355 257.46 265.355 253.92C265.355 250.379 264.175 247.282 261.845 244.686C259.249 241.853 255.945 240.408 252.05 240.408ZM256.476 261.796C253.85 263.301 250.339 263.331 247.655 261.796C246.327 261.059 245.265 259.938 244.468 258.551C243.672 257.135 243.288 255.601 243.288 253.979C243.288 251.441 244.144 249.317 245.885 247.518C247.625 245.718 249.631 244.863 252.05 244.863C254.469 244.863 256.476 245.748 258.216 247.518C259.957 249.317 260.812 251.441 260.812 253.979C260.812 255.601 260.429 257.165 259.632 258.581C258.865 259.967 257.803 261.059 256.476 261.796Z" fill="#E73942"/>
<path d="M287.895 242.473C286.243 241.499 284.413 240.998 282.496 240.998C280.047 240.939 277.864 241.352 275.887 242.178C274.737 242.827 273.586 243.742 272.436 244.951C271.256 246.338 270.489 248.521 270.164 251.412C270.017 252.326 269.958 253.477 269.987 254.775L270.017 267.225H274.53V257.666C274.53 254.539 274.678 252.356 274.943 251.205L274.973 251.117V251.028C274.884 249.376 275.474 248.108 276.743 247.164C278.1 246.161 279.634 245.659 281.375 245.659C283.381 245.659 284.885 245.954 285.859 246.574C286.803 247.164 287.423 248.137 287.747 249.583C287.983 250.468 288.072 252.297 288.072 255.041V267.284H292.526V254.067C292.526 250.615 292.172 248.167 291.464 246.485C290.786 244.833 289.576 243.476 287.895 242.473Z" fill="#E73942"/>
<path d="M217.15 263.065C216.59 263.065 216.059 262.947 215.528 262.711C213.935 261.472 213.197 259.761 213.285 257.43V246.308H219.038V242.266H213.285V232.148H208.772V257.961C208.742 259.849 209.185 261.59 210.07 263.183C211.574 265.72 213.669 267.077 216.295 267.225H220.071V266.576V263.035L217.15 263.065Z" fill="#E73942"/>
<path d="M238.863 240.585C238.067 240.437 237.418 240.349 236.798 240.349C230.544 240.349 225.47 245.541 225.47 251.943C225.47 252.12 225.499 266.458 225.499 266.458V267.136H230.042V266.458C230.042 266.458 230.013 251.795 230.013 251.677C230.013 250.674 230.219 249.701 230.662 248.786C231.045 247.96 231.576 247.252 232.255 246.633C233.376 245.6 234.851 245.01 236.474 244.892C236.651 244.892 236.651 244.863 237.123 244.892L237.565 244.922L239.748 240.732L238.863 240.585Z" fill="#E73942"/>
<path d="M124.28 249.907C123.837 248.816 123.1 247.872 122.097 247.105C121.064 246.338 119.825 245.925 118.379 245.925C116.432 245.925 114.78 246.633 113.423 248.019C112.066 249.435 111.299 251.294 111.152 253.654H124.988C124.958 252.267 124.722 250.999 124.28 249.907Z" fill="#E73942"/>
<path d="M116.934 232.413C107.582 232.413 100 240.024 100 249.406C100 255.66 103.393 261.118 108.408 264.068C107.169 261.944 106.579 259.407 106.579 256.398C106.579 252.385 107.7 249.14 109.912 246.662C112.125 244.184 114.898 242.916 118.232 242.916C121.536 242.916 124.191 244.066 126.197 246.338C128.203 248.609 129.236 252.031 129.295 256.604H110.945C110.945 260.41 111.742 263.006 113.335 264.334C114.81 265.573 116.344 266.222 117.937 266.31C126.817 265.779 133.838 258.433 133.838 249.406V232.413H116.934Z" fill="#E73942"/>
<path d="M313 232H309.755V267.225H313V232Z" fill="#9B9A9A"/>
<path d="M320.494 232C319.756 232 319.137 232.266 318.635 232.767C318.134 233.269 317.868 233.918 317.868 234.626C317.868 235.363 318.134 235.983 318.635 236.514C319.137 237.045 319.786 237.31 320.494 237.31C321.231 237.31 321.851 237.045 322.382 236.514C322.913 235.983 323.178 235.363 323.178 234.626C323.178 233.888 322.913 233.269 322.382 232.767C321.851 232.266 321.231 232 320.494 232Z" fill="#9B9A9A"/>
<path d="M322.116 242.266H318.901V267.225H322.116V242.266Z" fill="#9B9A9A"/>
<path d="M341.676 241.175C339.611 241.175 337.752 241.588 336.011 242.444C334.3 243.27 332.737 244.538 331.35 246.249V232.148H328.076C328.076 232.118 328.076 239.641 328.076 255.188C328.076 255.542 328.076 255.896 328.076 256.28V267.195H331.35V263.98C332.678 265.307 334.123 266.34 335.687 267.018C337.516 267.815 339.493 268.228 341.587 268.228C345.245 268.228 348.373 266.9 350.969 264.275C353.565 261.649 354.863 258.492 354.863 254.775C354.863 250.999 353.565 247.783 350.998 245.158C348.432 242.503 345.304 241.175 341.676 241.175ZM350.172 259.879C349.258 261.501 348.019 262.77 346.455 263.685C344.891 264.599 343.18 265.071 341.322 265.071C338.46 265.071 336.07 264.068 334.094 262.062C332.117 260.056 331.144 257.578 331.144 254.569C331.144 252.621 331.586 250.881 332.471 249.288C333.356 247.724 334.595 246.485 336.218 245.571C337.841 244.656 339.552 244.184 341.381 244.184C343.151 244.184 344.832 244.656 346.425 245.571C347.989 246.485 349.258 247.783 350.172 249.435C351.116 251.087 351.559 252.828 351.559 254.657C351.529 256.486 351.087 258.227 350.172 259.879Z" fill="#9B9A9A"/>
<path d="M393.539 262.711C392.684 263.449 391.622 264.068 390.383 264.54C389.143 265.012 387.875 265.248 386.547 265.248C383.833 265.248 381.562 264.275 379.733 262.386C377.874 260.469 376.93 258.02 376.871 255.011H400C399.971 251.5 399.056 248.58 397.197 246.22C394.572 242.886 391.061 241.234 386.695 241.234C382.417 241.234 379.025 242.857 376.487 246.102C374.481 248.639 373.478 251.559 373.478 254.834C373.478 258.286 374.658 261.383 377.018 264.127C379.379 266.871 382.653 268.257 386.842 268.257C388.73 268.257 390.442 267.962 391.946 267.402C393.451 266.841 394.808 265.986 396.017 264.894C397.227 263.803 398.259 262.357 399.174 260.557L396.401 259.082C395.368 260.734 394.424 261.944 393.539 262.711ZM380.205 246.78C382.034 245.158 384.187 244.332 386.695 244.332C388.229 244.332 389.704 244.656 391.091 245.305C392.477 245.954 393.598 246.81 394.454 247.872C395.309 248.934 395.929 250.35 396.371 252.12H377.225C377.903 249.76 378.906 247.99 380.205 246.78Z" fill="#9B9A9A"/>
<path d="M359.996 252.769C359.996 252.946 360.026 267.195 360.026 267.195H363.418C363.418 267.195 363.389 252.592 363.389 252.474C363.389 251.264 363.654 250.114 364.156 249.111C364.598 248.167 365.247 247.311 366.014 246.603C367.312 245.453 368.964 244.686 370.823 244.597C370.971 244.597 371.148 244.568 371.295 244.568C371.443 244.568 371.561 244.568 371.708 244.597L373.36 241.411C372.682 241.293 372.003 241.175 371.295 241.175C365.041 241.175 359.996 246.367 359.996 252.769Z" fill="#9B9A9A"/>
</svg>
