<svg width="500" height="500" viewBox="0 0 500 500" fill="none" xmlns="http://www.w3.org/2000/svg">
<rect width="500" height="500" fill="white"/>
<circle cx="250" cy="250" r="150" fill="#C71212"/>
<path d="M265 337C271.096 332.137 325 262 325 235C325 208 310 190 289 190C268 190 250 223 250 223C250 223 232 190 211 190C190 190 175 208 175 235C175 262 246.1 367 277 367C307.9 367 371.8 322.6 371.8 250C371.8 177.4 313 128.2 250 128.2C187 128.2 128.2 178.3 128.2 250C128.2 321.7 190.3 367 223 367" stroke="white" stroke-width="10" stroke-linecap="round"/>
</svg>
